<?xml version="1.0" standalone="no"?>
<svg>
<font id="Circle" horiz-adv-x="50" >
<font-face units-per-em="100" ascent="80" descent="-20" />
<glyph unicode=" " horiz-adv-x="50" d="" />
<glyph unicode="a" horiz-adv-x="56" d="M50.48986 21.71604 L50.49292 21.33838 L50.49292 -1.25604 L45.6339 -1.25604 L45.63452 7.25479 C41.52604 2.01728 35.17848 -1.38008 28.03321 -1.49593 L27.65555 -1.49899 C15.16892 -1.49899 5.02291 8.52216 4.82124 20.96072 L4.81818 21.33838 C4.81818 33.95113 15.0428 44.17575 27.65555 44.17575 C40.14217 44.17575 50.28819 34.1546 50.48986 21.71604 zM9.6796 21.63569 L9.67719 21.33838 C9.59756 11.50881 17.56521 3.44177 27.35824 3.36244 L27.65555 3.36003 C37.48512 3.28039 45.55216 11.24805 45.6315 21.04108 L45.6339 21.33838 C45.71354 31.16796 37.74588 39.23499 27.95285 39.31433 L27.65555 39.31674 C17.82597 39.39637 9.75894 31.42872 9.6796 21.63569 z" />
<glyph unicode="b" horiz-adv-x="55.35681" d="M9.70538 65.98031 L9.70532 35.37669 C13.88402 40.70327 20.37982 44.12545 27.67492 44.12545 C40.15543 44.12545 50.29647 34.10921 50.49804 21.67675 L50.5011 21.29927 C50.5011 8.81877 40.48486 -1.32228 28.0524 -1.52385 L27.67492 -1.52691 C15.19442 -1.52691 5.05337 8.48933 4.8518 20.9218 L4.84874 21.29927 L4.84874 65.98031 C6.46762 65.98031 8.0865 65.98031 9.70538 65.98031 zM10.67968 21.04552 L10.67733 20.75544 C10.59964 11.16475 18.37365 3.29378 27.92868 3.21637 L28.21876 3.21402 C37.80944 3.13632 45.68042 10.91033 45.75783 20.46536 L45.76018 20.75544 C45.83788 30.34612 38.06386 38.2171 28.50884 38.29451 L28.21876 38.29686 C18.62807 38.37456 10.75709 30.60054 10.67968 21.04552 z" />
<glyph unicode="c" horiz-adv-x="52.31182" d="M44.15694 37.72727 L44.42616 37.46237 L40.99015 34.02637 C34.03907 40.97746 22.75679 41.10382 15.77567 34.2349 L15.56373 34.02637 C8.55656 27.13183 8.48628 15.793 15.3552 8.81189 L15.56373 8.59995 C22.52792 1.522 33.96886 1.57865 40.99015 8.59995 L44.42616 5.16394 C35.59639 -3.66582 21.33534 -3.75411 12.39695 4.89905 L12.12773 5.16394 C3.20878 14.0829 3.20878 28.54342 12.12773 37.46237 C20.95749 46.29213 35.21855 46.38043 44.15694 37.72727 z" />
<glyph unicode="d" horiz-adv-x="56" d="M49.96675 21.30813 C49.96675 8.81924 39.94379 -1.32861 27.50297 -1.53032 L27.12524 -1.53338 C14.63636 -1.53338 4.4885 8.48959 4.2868 20.9304 L4.28374 21.30813 C4.28374 33.92316 14.51021 44.14964 27.12524 44.14964 C34.42553 44.14964 40.92592 40.72488 45.1074 35.39437 L45.10686 66.01916 L49.96675 66.01916 C49.96675 51.11549 49.96675 36.21181 49.96675 21.30813 zM9.14604 21.60549 L9.14363 21.30813 C9.06398 11.47677 17.03308 3.40828 26.82788 3.32893 L27.12524 3.32652 C36.9566 3.24687 45.02509 11.21597 45.10445 21.01077 L45.10686 21.30813 C45.1865 31.13949 37.21741 39.20798 27.4226 39.28733 L27.12524 39.28974 C17.29389 39.36939 9.22539 31.40029 9.14604 21.60549 z" />
<glyph unicode="e" horiz-adv-x="54.89527" d="M15.30283 31.43719 C15.30283 32.43992 15.4196 33.41537 15.64028 34.3507 C12.20859 31.13213 9.99889 26.58325 9.95792 21.52611 L9.95551 21.22867 C9.87584 11.39466 17.84708 3.324 27.64451 3.24463 L27.94195 3.24222 C37.77595 3.16255 45.84662 11.13379 45.92599 20.93123 L45.9284 21.22867 L50.7896 21.22867 C50.7896 8.73642 40.76394 -1.41416 28.31978 -1.61592 L27.94195 -1.61898 C15.44971 -1.61898 5.29913 8.40668 5.09737 20.85084 L5.0943 21.22867 C5.0943 33.77422 15.20572 43.95809 27.72358 44.07529 L27.94195 44.07631 C34.85256 44.07631 40.46777 38.5302 40.57939 31.6462 L40.58108 31.43719 C40.58108 24.52659 35.03497 18.91137 28.15097 18.79976 L27.94195 18.79806 C21.10046 18.79806 15.52857 24.23381 15.30952 31.02206 L15.30452 31.22818 C15.30396 31.29785 15.30339 31.36752 15.30283 31.43719 zM35.71988 31.43719 C35.75433 35.68973 32.30731 39.17975 28.07058 39.21407 L27.94195 39.21511 C23.68941 39.24956 20.1994 35.80254 20.16507 31.56581 L20.16403 31.43719 C20.12958 27.18465 23.5766 23.69463 27.81333 23.66031 L27.94195 23.65927 C32.15197 23.62516 35.6145 27.00339 35.71576 31.18173 L35.71884 31.30857 C35.71918 31.35144 35.71953 31.39432 35.71988 31.43719 z" />
<glyph unicode="f" horiz-adv-x="47.69434" d="M45.51007 53.82875 L45.51172 53.62471 L40.76617 53.62471 C40.76617 57.77622 37.43479 61.18306 33.29885 61.21657 L33.17329 61.21759 C29.02192 61.25122 25.61494 57.88621 25.58143 53.75027 L25.58041 53.62471 L25.58041 42.23539 L43.13894 42.23539 L43.13894 37.48984 L25.58041 37.48984 L25.58041 0 L20.83486 0 L20.83486 37.48984 L3.27633 37.48984 L3.27633 42.23539 L20.83486 42.23539 L20.83486 53.62471 C20.83486 60.43904 26.35896 65.96314 33.17329 65.96314 C39.91948 65.96314 45.40111 60.54897 45.51007 53.82875 z" />
<glyph unicode="g" horiz-adv-x="56" d="M4.89953 -3.08278 L9.7549 -3.08278 C9.7549 -12.90532 17.63702 -20.96599 27.42272 -21.04527 L27.7198 -21.04768 C37.54202 -21.12725 45.60301 -13.16556 45.68229 -3.37986 L45.68469 -3.08278 L45.68531 7.12105 C41.57991 1.88747 35.2371 -1.50735 28.09717 -1.62311 L27.7198 -1.62617 C15.24252 -1.62617 5.1041 8.38748 4.90258 20.81673 L4.89953 21.1941 C4.89953 33.79741 15.11649 44.01438 27.7198 44.01438 C40.19707 44.01438 50.33549 34.00073 50.53701 21.57148 L50.54007 21.1941 L50.54007 -3.08278 C50.54007 -15.56006 40.52642 -25.69848 28.09717 -25.9 L27.7198 -25.90305 C15.3673 -25.90305 5.30711 -16.08868 4.9116 -3.8323 L4.90258 -3.46016 C4.90156 -3.33437 4.90054 -3.20857 4.89953 -3.08278 zM9.75731 21.49119 L9.7549 21.1941 C9.67533 11.37189 17.63702 3.31089 27.42272 3.23162 L27.7198 3.22921 C37.54202 3.14963 45.60301 11.11132 45.68229 20.89702 L45.68469 21.1941 C45.76427 31.01632 37.80258 39.07731 28.01688 39.15659 L27.7198 39.159 C17.89758 39.23857 9.83659 31.27688 9.75731 21.49119 z" />
<glyph unicode="h" horiz-adv-x="56" d="M9.67906 20.67732 L9.67906 0 L4.75588 0 L4.75588 65.9705 L9.67906 65.9705 L9.679 34.9476 C13.91495 40.34716 20.49974 43.81623 27.89479 43.81623 C40.54628 43.81623 50.82626 33.66276 51.0306 21.05997 L51.0337 20.67732 L51.0337 0 L46.11053 0 L46.11053 20.67732 C46.11053 30.63701 38.11836 38.81023 28.19602 38.89062 L27.89479 38.89306 C17.93543 38.97374 9.84236 30.89991 9.6815 20.97855 C9.68068 20.87814 9.67987 20.77773 9.67906 20.67732 z" />
<glyph unicode="i" horiz-adv-x="16.98149" d="M10.77796 41.99406 L10.77796 0 L5.77866 0 L5.77866 41.99406 L10.77796 41.99406 zM8.26831 50.96229 C6.31709 50.96229 4.73331 52.54607 4.73331 54.49729 C4.73331 56.44852 6.31709 58.03229 8.26831 58.03229 C10.21953 58.03229 11.80331 56.44852 11.80331 54.49729 C11.80331 52.54607 10.21953 50.96229 8.26831 50.96229 z" />
<glyph unicode="j" horiz-adv-x="34.56456" d="M2.02276 -13.27604 L6.92572 -13.27604 C6.92572 -17.56525 10.36761 -21.08511 14.64074 -21.11973 L14.77047 -21.12078 C19.05954 -21.15553 22.57954 -17.67889 22.61416 -13.40576 L22.61521 -13.27604 L22.61521 42.12746 L27.51817 42.12746 L27.51817 -13.27604 C27.51817 -20.24601 21.92442 -25.90946 14.98127 -26.02203 L14.77047 -26.02374 C7.8702 -26.02374 2.25044 -20.5413 2.02951 -13.69473 L2.02447 -13.48684 C2.0239 -13.41657 2.02333 -13.34631 2.02276 -13.27604 zM25.05688 50.92288 C23.14326 50.92288 21.59 52.47614 21.59 54.38977 C21.59 56.30339 23.14326 57.85665 25.05688 57.85665 C26.97051 57.85665 28.52377 56.30339 28.52377 54.38977 C28.52377 52.47614 26.97051 50.92288 25.05688 50.92288 z" />
<glyph unicode="k" horiz-adv-x="35.93921" d="M11.50854 35.34815 C15.70436 40.69671 22.22689 44.13304 29.55202 44.13304 L29.55202 39.25649 C19.68665 39.25649 11.59082 31.34 11.5112 21.51162 L11.50878 21.21325 C11.42886 11.34819 19.42527 3.25205 29.25365 3.17242 L29.55202 3.17 L29.55202 -1.70655 C22.22689 -1.70655 15.70436 1.72978 11.50854 7.07834 L11.50878 -1.46272 L6.63223 -1.46272 L6.63223 66.07752 L11.50878 66.07752 C11.5087 55.8344 11.50862 45.59127 11.50854 35.34815 z" />
<glyph unicode="l" horiz-adv-x="17.97301" d="M11.38154 65.98687 L11.38154 0 L6.45714 0 L6.45714 65.98687 L11.38154 65.98687 z" />
<glyph unicode="m" horiz-adv-x="56" d="M38.09324 39.12665 C33.76062 39.16175 30.20488 35.64982 30.16991 31.33331 L30.16885 31.20227 L25.21611 31.20227 C25.21611 35.53503 21.73928 39.09062 17.42277 39.12559 L17.29173 39.12665 C12.95911 39.16175 9.40337 35.64982 9.3684 31.33331 L9.36734 31.20227 L9.36734 0 L4.4146 0 L4.4146 31.20227 C4.4146 38.31412 10.17988 44.07939 17.29173 44.07939 C21.56384 44.07939 25.35005 41.99902 27.69255 38.79609 C30.03485 41.99899 33.82109 44.07939 38.09324 44.07939 C45.13397 44.07939 50.85492 38.42885 50.96864 31.41521 L50.97036 31.20227 L50.97036 0 L46.01762 0 L46.01762 31.20227 C46.01762 35.53503 42.54037 39.05561 38.22428 39.12559 C38.1806 39.12594 38.13692 39.1263 38.09324 39.12665 z" />
<glyph unicode="n" horiz-adv-x="56" d="M27.96683 39.12427 C17.94826 39.20543 9.72612 31.08459 9.64526 21.10327 L9.6428 20.80024 L9.6428 0 L4.69036 0 L4.69036 20.80024 C4.69036 33.6555 15.11157 44.07671 27.96683 44.07671 C40.69353 44.07671 51.03463 33.86288 51.24018 21.18516 L51.24329 20.80024 L51.24329 0 L46.29085 0 L46.29085 20.80024 C46.29085 30.81914 38.25019 38.96 28.26985 39.12182 C28.16884 39.12263 28.06784 39.12345 27.96683 39.12427 z" />
<glyph unicode="o" horiz-adv-x="56" d="M5.05998 21.31072 C5.05998 33.92205 15.28345 44.14553 27.89479 44.14553 C40.38001 44.14553 50.52489 34.1255 50.72654 21.68833 L50.7296 21.31072 C50.7296 8.8255 40.70957 -1.31938 28.2724 -1.52103 L27.89479 -1.52409 C15.53442 -1.52409 5.46782 8.29654 5.07206 20.56072 L5.06304 20.9331 C5.06202 21.05897 5.061 21.18485 5.05998 21.31072 zM45.87113 21.31072 C45.95075 31.13919 37.98399 39.20532 28.19206 39.28465 L27.89479 39.28706 C18.06631 39.36668 10.00019 31.39992 9.92086 21.60799 L9.91845 21.31072 C9.83883 11.48224 17.80559 3.41612 27.59752 3.33679 L27.89479 3.33438 C37.62498 3.25555 45.62758 11.06332 45.86161 20.72029 L45.86872 21.01345 C45.86952 21.11254 45.87032 21.21163 45.87113 21.31072 z" />
<glyph unicode="p" horiz-adv-x="56" d="M51.47089 21.64639 L51.47395 21.26913 C51.47395 8.79552 41.46324 -1.33993 29.03764 -1.54139 L28.66038 -1.54444 C21.3693 -1.54444 14.87709 1.87585 10.7007 7.19949 L10.70076 -23.38722 L5.84681 -23.38722 L5.84681 21.26913 C5.84681 33.86873 16.06077 44.0827 28.66038 44.0827 C41.13399 44.0827 51.26943 34.07199 51.47089 21.64639 zM10.70316 21.56612 L10.70076 21.26913 C10.62121 11.44979 18.58056 3.39117 28.36338 3.31191 L28.66038 3.30951 C38.47971 3.22996 46.53834 11.18931 46.61759 20.97213 L46.62 21.26913 C46.69955 31.08846 38.7402 39.14709 28.95737 39.22634 L28.66038 39.22875 C18.84104 39.3083 10.78242 31.34895 10.70316 21.56612 z" />
<glyph unicode="q" horiz-adv-x="56" d="M50.54399 21.7465 L50.54705 21.36905 L50.54705 -23.30965 L45.69067 -23.30965 L45.69129 7.29309 C41.58503 2.05842 35.24092 -1.3371 28.09951 -1.45288 L27.72206 -1.45594 C15.24221 -1.45594 5.10169 8.55978 4.90013 20.9916 L4.89707 21.36905 C4.89707 33.97497 15.11615 44.19404 27.72206 44.19404 C40.20192 44.19404 50.34243 34.17832 50.54399 21.7465 zM9.75586 21.6662 L9.75345 21.36905 C9.67386 11.5448 17.6372 3.48214 27.42492 3.40285 L27.72206 3.40044 C37.54631 3.32085 45.60897 11.28419 45.68826 21.07191 L45.69067 21.36905 C45.77026 31.1933 37.80693 39.25596 28.0192 39.33525 L27.72206 39.33766 C17.89781 39.41725 9.83515 31.45392 9.75586 21.6662 z" />
<glyph unicode="r" horiz-adv-x="31.96568" d="M29.31343 39.21184 C19.27211 39.21184 11.0319 31.15416 10.95086 21.1505 L10.9484 20.8468 L10.9484 0 L5.98487 0 L5.98487 20.8468 C5.98487 33.60199 16.22156 43.96622 28.92765 44.17223 L29.31343 44.17536 C29.31343 42.52085 29.31343 40.86634 29.31343 39.21184 z" />
<glyph unicode="s" horiz-adv-x="48.15941" d="M25.83516 19.29108 C20.15436 15.38143 12.42163 16.65512 8.39005 22.21847 L8.26903 22.38836 C4.27369 28.09457 5.66042 35.95912 11.3666 39.95453 C21.57826 47.10473 35.61398 44.71935 42.90174 34.66237 L43.1205 34.35527 L39.14677 31.57283 C33.51774 39.61192 22.44779 41.69196 14.39352 36.14905 L14.149 35.98077 C10.653 33.57484 9.77312 28.75954 12.17001 25.27651 L12.24272 25.17084 C14.64856 21.6748 19.46407 20.79502 22.94694 23.192 L23.05268 23.26477 C28.73348 27.17442 36.46621 25.90073 40.49779 20.33738 L40.61886 20.16742 C44.57419 14.51835 43.25462 6.75381 37.69113 2.72234 L37.52124 2.60133 C27.30957 -4.54888 13.27386 -2.1635 5.9861 7.89348 L5.76734 8.20058 L9.74107 10.98302 C15.3701 2.94393 26.44005 0.86389 34.49432 6.4068 L34.73884 6.57508 C38.23484 8.98101 39.11474 13.79633 36.71783 17.27934 L36.64507 17.38508 C34.23926 20.88104 29.44309 21.7325 25.9409 19.36385 C25.90565 19.33959 25.87041 19.31534 25.83516 19.29108 z" />
<glyph unicode="t" horiz-adv-x="48.85186" d="M26.58643 53.80952 L26.58643 42.38095 L44.20548 42.38095 L44.20548 37.61905 L26.58643 37.61905 L26.58643 0 L21.82453 0 L21.82453 37.61905 L4.20548 37.61905 L4.20548 42.38095 L21.82453 42.38095 L21.82453 53.80952 L26.58643 53.80952 z" />
<glyph unicode="u" horiz-adv-x="56" d="M50.57835 41.92068 L50.57835 21.41648 C50.57835 8.87091 40.5099 -1.323 28.01262 -1.52562 L27.63318 -1.5287 C15.08761 -1.5287 4.8937 8.53976 4.69108 21.03704 L4.688 21.41648 L4.688 41.92068 L9.56996 41.92068 L9.56996 21.41648 C9.56996 11.54018 17.49521 3.43539 27.33447 3.35568 L27.63318 3.35326 C37.50916 3.27325 45.61427 11.27851 45.69398 21.11777 L45.6964 21.41648 L45.6964 41.92068 C47.32372 41.92068 48.95103 41.92068 50.57835 41.92068 z" />
<glyph unicode="v" horiz-adv-x="49.12313" d="M41.83466 44.00608 L45.96249 41.94217 L24.51532 -0.95218 L3.06814 41.94217 L7.19598 44.00608 L24.51532 9.36771 L41.83466 44.00608 z" />
<glyph unicode="w" horiz-adv-x="56" d="M50.76415 42.01686 L50.76415 11.17427 C50.76415 4.2147 45.17874 -1.4403 38.24596 -1.55271 L38.03547 -1.55441 C33.81249 -1.55441 30.06984 0.50208 27.75435 3.66824 C25.47787 0.55476 21.8209 -1.48564 17.68423 -1.55271 L17.47374 -1.55441 C10.51417 -1.55441 4.85916 4.031 4.74676 10.96378 L4.74505 11.17427 L4.74505 42.01686 L9.6407 42.01686 L9.6407 11.17427 C9.6407 6.89146 13.07745 3.37685 17.34421 3.34228 L17.47374 3.34124 C21.75642 3.30654 25.27116 6.77799 25.30573 11.04474 L25.30678 11.17427 L30.20243 11.17427 C30.20243 6.89146 33.63918 3.37685 37.90593 3.34228 L38.03547 3.34124 C42.31814 3.30654 45.83289 6.77799 45.86745 11.04474 L45.8685 11.17427 L45.8685 42.01686 C47.50039 42.01686 49.13227 42.01686 50.76415 42.01686 z" />
<glyph unicode="x" horiz-adv-x="56" d="M48.61351 39.25547 C38.79232 39.25547 30.73276 31.37444 30.65349 21.59008 L30.65109 21.29304 C30.57153 11.47218 38.53212 3.41229 48.31647 3.33303 L48.61351 3.33062 L48.61351 -1.52409 C39.6985 -1.52409 31.97767 3.58868 28.22322 11.04199 C24.52287 3.69403 16.96644 -1.37908 8.21128 -1.52103 L7.83396 -1.52409 L7.83396 3.33062 C17.65514 3.33062 25.71471 11.21165 25.79397 20.996 L25.79638 21.29304 C25.87594 31.11391 17.91535 39.17379 8.131 39.25306 L7.83396 39.25547 L7.83396 44.11017 C16.74896 44.11017 24.4698 38.99741 28.22424 31.54409 C31.97767 38.99741 39.6985 44.11017 48.61351 44.11017 C48.61351 42.49194 48.61351 40.8737 48.61351 39.25547 z" />
<glyph unicode="y" horiz-adv-x="57.43504" d="M5.22964 -3.04129 L10.12936 -3.04129 C10.12936 -12.95353 18.08345 -21.08781 27.95851 -21.16782 L28.25831 -21.17024 C38.17022 -21.25055 46.30483 -13.21615 46.38483 -3.34109 L46.38726 -3.04129 L46.38788 7.25572 C42.24499 1.97434 35.84426 -1.45147 28.63913 -1.56829 L28.25831 -1.57138 C15.66709 -1.57138 5.43609 8.53371 5.23273 21.07646 L5.22964 21.45729 L5.22964 42.03609 L10.12936 42.03609 L10.12936 21.45729 C10.12936 11.54505 18.08345 3.41077 27.95851 3.33077 L28.25831 3.32834 C38.17022 3.24804 46.30483 11.28243 46.38483 21.15749 L46.38726 21.45729 L46.38726 42.03609 L51.28698 42.03609 L51.28698 -3.04129 C51.28698 -15.63251 41.18188 -25.86351 28.63913 -26.06688 L28.25831 -26.06996 C15.793 -26.06996 5.64095 -16.16596 5.24183 -3.79766 L5.23273 -3.42212 C5.2317 -3.29518 5.23067 -3.16824 5.22964 -3.04129 z" />
<glyph unicode="z" horiz-adv-x="49.33039" d="M5.92697 41.92544 L43.43481 41.92544 L14.88965 4.46015 L43.39226 4.46015 L43.39226 0 L5.88441 0 L34.42913 37.46529 L5.92697 37.46529 L5.92697 41.92544 z" />
</font>
</svg>
