<?xml version="1.0" encoding="UTF-8"?>
<svg width="154px" height="188px" viewBox="0 0 154 188" version="1.1" xmlns="http://www.w3.org/2000/svg" xmlns:xlink="http://www.w3.org/1999/xlink">
    <title>alphabet_s</title>
    <g id="Page-1" stroke="none" stroke-width="1" fill="none" fill-rule="evenodd">
        <path d="M83.1718002,101.89143 L82.7358675,102.191448 C59.4461735,118.499505 27.4340318,113.059075 10.8124988,90.1222732 L10.3135518,89.4218675 C-6.1585738,65.8960965 -0.441329527,33.4718322 23.084335,16.99941 C65.1853688,-12.4797335 123.05233,-2.645185 153.098587,38.8180973 L154.000519,40.0842338 L137.617481,51.5557662 C114.409885,18.4119004 68.9545451,10.1063255 35.5638343,32.6887721 L34.5557229,33.3825495 C20.2230214,43.4181559 16.6313935,63.0748982 26.396643,77.5144712 L26.6964482,77.9501325 C36.7323516,92.2825038 56.3892092,95.8741487 70.8281998,86.1085696 L71.2641325,85.8085518 C94.5538265,69.5004954 126.565968,74.9409254 143.187501,97.8777268 L143.686651,98.5784218 C159.993855,121.868649 154.553455,153.880572 131.616088,170.501657 L130.915665,171.00059 C88.8146312,200.479733 30.9476702,190.645185 0.901412919,149.181903 L-0.000519133868,147.915766 L16.3825191,136.444234 C39.5901151,169.5881 85.0454549,177.893674 118.436166,155.311228 L119.444277,154.617451 C133.776979,144.581844 137.368607,124.925102 127.603357,110.485529 L127.303349,110.049578 C117.267648,95.7174962 97.6107908,92.1258513 83.1718002,101.89143 Z" id="alphabet_s" fill="#000000" fill-rule="nonzero"></path>
    </g>
</svg>