<?xml version="1.0" encoding="UTF-8"?>
<svg width="188px" height="188px" viewBox="0 0 188 188" version="1.1" xmlns="http://www.w3.org/2000/svg" xmlns:xlink="http://www.w3.org/1999/xlink">
    <title>alphabet_a</title>
    <g id="Page-1" stroke="none" stroke-width="1" fill="none" fill-rule="evenodd">
        <path d="M94,0 C145.395699,0 187.157314,41.247658 187.987407,92.4455357 L188,94 L188,187 L168,187 L168.002542,151.968937 C151.091789,173.526828 124.964851,187.510564 95.5544643,187.987407 L94,188 C42.604301,188 0.84268602,146.752342 0.0125932903,95.5544643 L0,94 C0,42.0851525 42.0851525,0 94,0 Z M94,20 C53.539539,20 20.6633908,52.4715436 20.0099139,92.7762723 L20,94 C20,134.460461 52.4715436,167.336609 92.7762723,167.990086 L94,168 C134.460461,168 167.336609,135.528456 167.990086,95.2237277 L168,94 C168,53.539539 135.528456,20.6633908 95.2237277,20.0099139 L94,20 Z" id="alphabet_a" fill="#000000" fill-rule="nonzero"></path>
    </g>
</svg>