<?xml version="1.0" encoding="UTF-8"?>
<svg width="188px" height="178px" viewBox="0 0 188 178" version="1.1" xmlns="http://www.w3.org/2000/svg" xmlns:xlink="http://www.w3.org/1999/xlink">
    <title>alphabet_m</title>
    <g id="Page-1" stroke="none" stroke-width="1" fill="none" fill-rule="evenodd">
        <path d="M136.52918,20.0042871 L136,20 C118.503579,20 104.286872,34.0417432 104.004287,51.4708203 L104,52 L84,52 C84,34.503579 69.9582568,20.2868716 52.5291797,20.0042871 L52,20 C34.503579,20 20.2868716,34.0417432 20.0042871,51.4708203 L20,52 L20,178 L0,178 L0,52 C0,23.2811525 23.2811525,0 52,0 C69.2515107,0 84.5408584,8.40087892 94.0002842,21.3348779 C103.45887,8.40102813 118.748336,0 136,0 C164.431659,0 187.533833,22.8178576 187.993033,51.1400837 L188,52 L188,178 L168,178 L168,52 C168,34.503579 153.958257,20.2868716 136.52918,20.0042871 Z" id="alphabet_m" fill="#000000" fill-rule="nonzero"></path>
    </g>
</svg>