<?xml version="1.0" encoding="UTF-8"?>
<svg width="188px" height="278px" viewBox="0 0 188 278" version="1.1" xmlns="http://www.w3.org/2000/svg" xmlns:xlink="http://www.w3.org/1999/xlink">
    <title>alphabet_p</title>
    <g id="Page-1" stroke="none" stroke-width="1" fill="none" fill-rule="evenodd">
        <path d="M94,0 C145.395699,0 187.157314,41.247658 187.987407,92.4455357 L188,94 C188,145.395699 146.752342,187.157314 95.5544643,187.987407 L94,188 C63.9581802,188 37.2079778,173.90717 19.9997836,151.971901 L20,278 L0,278 L0,94 C0,42.0851525 42.0851525,0 94,0 Z M94,20 C53.539539,20 20.6633908,52.4715436 20.0099139,92.7762723 L20,94 C20,134.460461 52.4715436,167.336609 92.7762723,167.990086 L94,168 C134.460461,168 167.336609,135.528456 167.990086,95.2237277 L168,94 C168,53.539539 135.528456,20.6633908 95.2237277,20.0099139 L94,20 Z" id="alphabet_p" fill="#000000" fill-rule="nonzero"></path>
    </g>
</svg>