<?xml version="1.0" encoding="UTF-8"?>
<svg width="168px" height="188px" viewBox="0 0 168 188" version="1.1" xmlns="http://www.w3.org/2000/svg" xmlns:xlink="http://www.w3.org/1999/xlink">
    <title>alphabet_x</title>
    <g id="Page-1" stroke="none" stroke-width="1" fill="none" fill-rule="evenodd">
        <path d="M168,0 L168,20 C127.539539,20 94.6633908,52.4715436 94.0099139,92.7762723 L94,94 C94,134.460461 126.471544,167.336609 166.776272,167.990086 L168,168 L168,188 C131.272743,188 99.4651325,166.936879 83.9978997,136.231369 C68.7535005,166.502849 37.6232081,187.402609 1.55446426,187.987407 L0,188 L0,168 C40.460461,168 73.3366092,135.528456 73.9900861,95.2237277 L74,94 C74,53.539539 41.5284564,20.6633908 1.22372769,20.0099139 L0,20 L0,0 C36.7272568,0 68.5348675,21.063121 84.0021003,51.7686312 C99.4651325,21.063121 131.272743,0 168,0 Z" id="alphabet_x" fill="#000000" fill-rule="nonzero"></path>
    </g>
</svg>