<?xml version="1.0" encoding="UTF-8"?>
<svg width="188px" height="278px" viewBox="0 0 188 278" version="1.1" xmlns="http://www.w3.org/2000/svg" xmlns:xlink="http://www.w3.org/1999/xlink">
    <title>alphabet_y</title>
    <g id="Page-1" stroke="none" stroke-width="1" fill="none" fill-rule="evenodd">
        <path d="M0.0125932903,185.554464 L0,184 L20,184 C20,224.460461 52.4715436,257.336609 92.7762723,257.990086 L94,258 C134.460461,258 167.336609,225.528456 167.990086,185.223728 L168,184 L168.002542,141.968937 C151.091789,163.526828 124.964851,177.510564 95.5544643,177.987407 L94,178 C42.604301,178 0.84268602,136.752342 0.0125932903,85.5544643 L0,84 L0,0 L20,0 L20,84 C20,124.460461 52.4715436,157.336609 92.7762723,157.990086 L94,158 C134.460461,158 167.336609,125.528456 167.990086,85.2237277 L168,84 L168,0 L188,0 L188,184 C188,235.395699 146.752342,277.157314 95.5544643,277.987407 L94,278 C43.118258,278 1.67888173,237.57317 0.0497442314,187.087384 L0.0125932903,185.554464 Z" id="alphabet_y" fill="#000000" fill-rule="nonzero"></path>
    </g>
</svg>