<?xml version="1.0" encoding="UTF-8"?>
<svg width="188px" height="188px" viewBox="0 0 188 188" version="1.1" xmlns="http://www.w3.org/2000/svg" xmlns:xlink="http://www.w3.org/1999/xlink">
    <title>alphabet_e</title>
    <g id="Page-1" stroke="none" stroke-width="1" fill="none" fill-rule="evenodd">
        <path d="M42.0069665,52.8599163 L42,52 C42,47.8745715 42.4804062,43.8613498 43.3883271,40.0132262 C29.2696615,53.2550881 20.3472191,71.9721763 20.0099139,92.7762723 L20,94 C20,134.460461 52.4715436,167.336609 92.7762723,167.990086 L94,168 C134.460461,168 167.336609,135.528456 167.990086,95.2237277 L168,94 L188,94 C188,145.395699 146.752342,187.157314 95.5544643,187.987407 L94,188 C42.604301,188 0.84268602,146.752342 0.0125932903,95.5544643 L0,94 C0,42.3849566 41.6004793,0.486404563 93.1015775,0.00420436906 L94,0 C122.431659,0 145.533833,22.8178576 145.993033,51.1400837 L146,52 C146,80.431659 123.182142,103.533833 94.8599163,103.993033 L94,104 C65.8526576,104 42.9287433,81.6362178 42.0275181,53.7079144 L42.0069665,52.8599163 Z M125.995713,52.5291797 L126,52 C126,34.503579 111.958257,20.2868716 94.5291797,20.0042871 L94,20 C76.503579,20 62.2868716,34.0417432 62.0042871,51.4708203 L62,52 C62,69.496421 76.0417432,83.7131284 93.4708203,83.9957129 L94,84 C111.321457,84 125.428466,70.2376875 125.983066,53.0510252 L125.995713,52.5291797 Z" id="alphabet_e" fill="#000000" fill-rule="nonzero"></path>
    </g>
</svg>