<?xml version="1.0" encoding="UTF-8"?>
<svg width="109px" height="343px" viewBox="0 0 109 343" version="1.1" xmlns="http://www.w3.org/2000/svg" xmlns:xlink="http://www.w3.org/1999/xlink">
    <title>alphabet_j</title>
    <g id="Page-1" stroke="none" stroke-width="1" fill="none" fill-rule="evenodd">
        <g id="alphabet_j" transform="translate(0.000000, 0.000000)" fill="#000000" fill-rule="nonzero">
            <path d="M0.00696650229,291.021916 L0,290.162 L20,290.162 C20,307.658421 34.0417432,321.875128 51.4708203,322.157713 L52,322.162 C69.496421,322.162 83.7131284,308.120257 83.9957129,290.69118 L84,290.162 L84,64.162 L104,64.162 L104,290.162 C104,318.593659 81.1821424,341.695833 52.8599163,342.155033 L52,342.162 C23.8526576,342.162 0.928743251,319.798218 0.0275180905,291.869914 L0.00696650229,291.021916 Z" id="Stroke-1"></path>
            <path d="M108.102,14.142 C108.102,21.948 101.766,28.284 93.96,28.284 C86.154,28.284 79.818,21.948 79.818,14.142 C79.818,6.336 86.154,-2.27373675e-13 93.96,-2.27373675e-13 C101.766,-2.27373675e-13 108.102,6.336 108.102,14.142" id="Fill-2"></path>
        </g>
    </g>
</svg>