<?xml version="1.0" encoding="UTF-8"?>
<svg width="188px" height="188px" viewBox="0 0 188 188" version="1.1" xmlns="http://www.w3.org/2000/svg" xmlns:xlink="http://www.w3.org/1999/xlink">
    <title>alphabet_o</title>
    <g id="Page-1" stroke="none" stroke-width="1" fill="none" fill-rule="evenodd">
        <path d="M0.0125932903,95.5544643 L0,94 C0,42.0851525 42.0851525,0 94,0 C145.395699,0 187.157314,41.247658 187.987407,92.4455357 L188,94 C188,145.395699 146.752342,187.157314 95.5544643,187.987407 L94,188 C43.118258,188 1.67888173,147.57317 0.0497442314,97.0873842 L0.0125932903,95.5544643 Z M167.990086,95.2237277 L168,94 C168,53.539539 135.528456,20.6633908 95.2237277,20.0099139 L94,20 C53.539539,20 20.6633908,52.4715436 20.0099139,92.7762723 L20,94 C20,134.460461 52.4715436,167.336609 92.7762723,167.990086 L94,168 C134.055856,168 166.678328,136.17464 167.96084,96.430495 L167.990086,95.2237277 Z" id="alphabet_o" fill="#000000" fill-rule="nonzero"></path>
    </g>
</svg>