<?xml version="1.0" encoding="UTF-8"?>
<svg width="188px" height="178px" viewBox="0 0 188 178" version="1.1" xmlns="http://www.w3.org/2000/svg" xmlns:xlink="http://www.w3.org/1999/xlink">
    <title>alphabet_w</title>
    <g id="Page-1" stroke="none" stroke-width="1" fill="none" fill-rule="evenodd">
        <path d="M168,0 L188,0 L188,126 C188,154.431659 165.182142,177.533833 136.859916,177.993033 L136,178 C118.748044,178 103.458352,169.598687 93.9989828,156.66412 C84.6989401,169.383467 69.7592878,177.719037 52.8599163,177.993033 L52,178 C23.568341,178 0.46616682,155.182142 0.00696650229,126.859916 L0,126 L0,0 L20,0 L20,126 C20,143.496421 34.0417432,157.713128 51.4708203,157.995713 L52,158 C69.496421,158 83.7131284,143.958257 83.9957129,126.52918 L84,126 L104,126 C104,143.496421 118.041743,157.713128 135.47082,157.995713 L136,158 C153.496421,158 167.713128,143.958257 167.995713,126.52918 L168,126 L168,0 Z" id="alphabet_w" fill="#000000" fill-rule="nonzero"></path>
    </g>
</svg>