<?xml version="1.0" encoding="UTF-8"?>
<svg width="188px" height="278px" viewBox="0 0 188 278" version="1.1" xmlns="http://www.w3.org/2000/svg" xmlns:xlink="http://www.w3.org/1999/xlink">
    <title>alphabet_d</title>
    <g id="Page-1" stroke="none" stroke-width="1" fill="none" fill-rule="evenodd">
        <path d="M188,0 L188,184 C188,235.395699 146.752342,277.157314 95.5544643,277.987407 L94,278 C42.604301,278 0.84268602,236.752342 0.0125932903,185.554464 L0,184 C0,132.085153 42.0851525,90 94,90 C124.042998,90 150.79412,104.093935 168.002241,126.03068 L168,0 L188,0 Z M94,110 C53.539539,110 20.6633908,142.471544 20.0099139,182.776272 L20,184 C20,224.460461 52.4715436,257.336609 92.7762723,257.990086 L94,258 C134.460461,258 167.336609,225.528456 167.990086,185.223728 L168,184 C168,143.539539 135.528456,110.663391 95.2237277,110.009914 L94,110 Z" id="alphabet_d" fill="#000000" fill-rule="nonzero"></path>
    </g>
</svg>